# xmcd CD database file
#
# Track frame offsets:
#	150
#	23522
#	45355
#	64623
#	82277
#	101453
#	121619
#	149211
#	168796
#	197390
#
# Disc length: 2907 seconds
#
# Revision: 2
# Processed by: cddbd v1.5.2PL0 Copyright (c) Steve Scherf et al.
# Submitted via: CDex 1.70beta3
#
DISCID=780b590a
DTITLE=BOW WOW - Era
DYEAR=2005
DGENRE=J-Metal
TTITLE0=Fallen Angel
TTITLE1=The Deal
TTITLE2='Til The Break Of Day
TTITLE3=Can't Stop Now
TTITLE4=Rock Me
TTITLE5=Rock 'N' Roll Swindler
TTITLE6=Tycoon
TTITLE7=Liars
TTITLE8=One Way Love
TTITLE9=Hands Up
EXTD=YEAR: 2005
EXTT0=
EXTT1=
EXTT2=
EXTT3=
EXTT4=
EXTT5=
EXTT6=
EXTT7=
EXTT8=
EXTT9=
PLAYORDER=
